<?xml version="1.0" encoding="utf-8"?>
<!-- Generator: Adobe Illustrator 20.1.0, SVG Export Plug-In . SVG Version: 6.00 Build 0)  -->
<svg version="1.1" id="Vrstva_1" xmlns="http://www.w3.org/2000/svg" xmlns:xlink="http://www.w3.org/1999/xlink" x="0px" y="0px"
	 viewBox="0 0 150 150" style="enable-background:new 0 0 150 150;" xml:space="preserve">
<style type="text/css">
	.st0{opacity:0.9;fill:#575757;enable-background:new    ;}
	.st1{fill:#F1F1F1;}
</style>
<title>fb</title>
<path class="st0" d="M22.8,0h104.4C139.8,0,150,10.2,150,22.8v104.4c0,12.6-10.2,22.8-22.8,22.8H22.8C10.2,150,0,139.8,0,127.2V22.8
	C0,10.2,10.2,0,22.8,0z"/>
<g>
	<path class="st1" d="M67.9,72.7C68,72.8,68,73,68,73c8.9,4.1,11.6,9.3,9.8,19.2c-3,16.5-14,25.8-30.8,26c-10.9,0.1-21.8,0-32.6,0.1
		c-2.5,0-3-0.8-2.5-3.1c5.6-27,11.1-54,16.5-81c0.5-2.3,1.5-3.2,3.9-3.2C43.2,31,54.1,30.9,65,31c2.5,0,5.2,0.4,7.6,1.1
		c8,2,12.4,7.8,11.8,16c-0.8,10.9-5,19.8-16,24C68.2,72.2,68.1,72.5,67.9,72.7z M41.8,102c6.6,0,10.3-2.8,12.1-9.4
		c2.2-8-0.6-11.6-8.7-11.5c-0.1,0-0.2,0-0.3,0c-2-0.3-3,0.5-3.4,2.6c-0.9,4.8-2.1,9.5-3.2,14.3C37.5,102,37.5,102,41.8,102z
		 M45.7,64.8c8.7,2.5,15.9-4.1,14-12.3c-0.8-3.5-7-6-9.9-4c-0.3,0.2-0.5,0.5-0.6,0.9C47.9,54.5,46.8,59.7,45.7,64.8z"/>
	<path class="st1" d="M106.7,101.4c1.1,0,2.3,0,3.4,0c5.8,0,11.6,0,17.4,0c3.4,0,3.4,0.1,2.6,3.4c-0.7,2.9-1.4,5.7-1.9,8.6
		c-0.4,2.7-1.5,3.9-4.5,3.9c-15-0.1-30,0-45,0.1c-0.2,0-0.3-0.1-0.8-0.3c0.1-0.9,0.1-2,0.3-3.1c0.6-3,1.3-5.9,1.8-8.9
		c0.4-2.6,1.6-4.7,3.5-6.6c8.6-8.8,17.1-17.8,25.6-26.7c0.4-0.4,0.7-0.9,1.5-1.9c-1.4-0.1-2.4-0.2-3.3-0.2c-5.3,0-10.7-0.1-16,0
		c-2.1,0-2.8-0.7-2.3-2.8c0.9-4,1.7-8.1,2.5-12.2c0.3-1.6,1.1-2.2,2.6-2.2c14.8,0,29.7,0,44.5,0c2.2,0,2.9,0.9,2.4,3.1
		c-0.9,3.7-1.6,7.6-2.6,11.3c-0.4,1.3-1.2,2.7-2.2,3.7c-9,9.2-18.1,18.3-27.2,27.5c-0.8,0.8-1.6,1.7-2.4,2.6
		C106.5,100.9,106.6,101.1,106.7,101.4z"/>
</g>
</svg>
